<svg width="103pt" height="12pt" viewBox="0 0 103 12" xmlns="http://www.w3.org/2000/svg"><g id="fontsvg1691781852006" stroke-linecap="round" fill-rule="evenodd" fill="#000000"><path d="M 53.354 10.64 L 54.376 1.932 L 52.85 1.764 L 52.85 1.064 L 56.56 1.064 L 58.534 7.364 L 58.996 9.142 L 59.416 7.364 L 61.376 1.064 L 65.058 1.064 L 65.058 1.764 L 63.518 1.932 L 64.638 10.626 L 65.856 10.78 L 65.856 11.466 L 61.824 11.466 L 61.824 10.78 L 63.098 10.64 L 62.468 4.354 L 62.174 1.652 L 61.586 3.668 L 59.248 10.99 L 58.338 10.99 L 56.07 4.284 L 55.244 1.638 L 54.992 4.354 L 54.432 10.64 L 55.818 10.78 L 55.818 11.466 L 52.164 11.466 L 52.164 10.78 L 53.354 10.64 Z M 67.326 10.668 L 67.326 1.022 L 66.15 0.868 L 66.15 0.266 L 68.432 0 L 68.46 0 L 68.768 0.21 L 68.768 3.458 L 68.712 4.648 A 3.548 3.548 0 0 1 69.122 4.331 Q 69.341 4.185 69.607 4.044 A 7.426 7.426 0 0 1 69.944 3.878 A 3.874 3.874 0 0 1 71.029 3.55 A 3.501 3.501 0 0 1 71.526 3.514 A 3.754 3.754 0 0 1 72.039 3.547 Q 72.561 3.619 72.898 3.85 A 1.604 1.604 0 0 1 73.415 4.445 A 2.282 2.282 0 0 1 73.584 4.879 Q 73.78 5.572 73.78 6.748 L 73.78 10.654 L 74.76 10.78 L 74.76 11.466 L 71.414 11.466 L 71.414 10.78 L 72.324 10.654 L 72.324 6.734 A 9.874 9.874 0 0 0 72.313 6.253 Q 72.292 5.813 72.228 5.509 A 2.604 2.604 0 0 0 72.212 5.439 A 1.54 1.54 0 0 0 72.102 5.124 Q 71.998 4.91 71.833 4.772 A 0.96 0.96 0 0 0 71.792 4.739 Q 71.574 4.575 71.201 4.528 A 2.631 2.631 0 0 0 70.868 4.508 A 2.31 2.31 0 0 0 70.313 4.579 Q 70.059 4.642 69.79 4.76 A 5.182 5.182 0 0 0 69.158 5.089 A 4.249 4.249 0 0 0 68.782 5.348 L 68.782 10.654 L 69.748 10.78 L 69.748 11.466 L 66.486 11.466 L 66.486 10.78 L 67.326 10.668 Z M 0 1.764 L 0 1.064 L 3.724 1.064 L 3.724 1.764 L 2.478 1.932 L 4.788 8.498 L 5.306 10.206 L 5.768 8.47 L 7.854 1.932 L 6.748 1.764 L 6.748 1.064 L 9.87 1.064 L 9.87 1.764 L 8.974 1.932 L 5.656 11.578 L 4.438 11.578 L 0.854 1.932 L 0 1.764 Z M 35.238 10.654 L 35.238 4.774 L 34.23 4.522 L 34.23 3.766 L 36.232 3.514 L 36.274 3.514 L 36.568 3.766 L 36.568 4.354 L 36.554 4.69 Q 36.983 4.309 37.644 3.989 A 7.387 7.387 0 0 1 37.884 3.878 A 4.545 4.545 0 0 1 38.668 3.611 A 3.456 3.456 0 0 1 39.466 3.514 A 3.739 3.739 0 0 1 39.978 3.547 Q 40.239 3.583 40.452 3.659 A 1.597 1.597 0 0 1 40.831 3.85 A 1.601 1.601 0 0 1 41.332 4.427 A 2.301 2.301 0 0 1 41.51 4.879 Q 41.706 5.572 41.706 6.748 L 41.706 10.668 L 42.686 10.766 L 42.686 11.466 L 39.368 11.466 L 39.368 10.78 L 40.236 10.668 L 40.236 6.734 A 9.874 9.874 0 0 0 40.225 6.253 Q 40.204 5.813 40.14 5.509 A 2.604 2.604 0 0 0 40.124 5.439 A 1.54 1.54 0 0 0 40.014 5.124 Q 39.91 4.91 39.745 4.772 A 0.96 0.96 0 0 0 39.704 4.739 Q 39.476 4.568 39.096 4.524 A 2.48 2.48 0 0 0 38.808 4.508 A 2.31 2.31 0 0 0 38.253 4.579 Q 37.999 4.642 37.73 4.76 A 5.45 5.45 0 0 0 37.031 5.127 A 4.614 4.614 0 0 0 36.708 5.348 L 36.708 10.654 L 37.66 10.78 L 37.66 11.466 L 34.356 11.466 L 34.356 10.78 L 35.238 10.654 Z M 23.17 3.64 L 23.17 1.022 L 21.742 0.854 L 21.742 0.252 L 24.262 0 L 24.304 0 L 24.612 0.224 L 24.612 10.752 L 25.424 10.752 L 25.424 11.396 Q 24.976 11.494 24.647 11.55 A 4.01 4.01 0 0 1 24.112 11.603 A 4.587 4.587 0 0 1 23.954 11.606 A 1.66 1.66 0 0 1 23.775 11.597 Q 23.594 11.577 23.486 11.514 A 0.38 0.38 0 0 1 23.436 11.48 A 0.323 0.323 0 0 1 23.35 11.364 Q 23.299 11.254 23.286 11.074 A 1.799 1.799 0 0 1 23.282 10.948 L 23.282 10.5 A 2.917 2.917 0 0 1 22.662 11.058 A 3.706 3.706 0 0 1 22.253 11.298 Q 21.616 11.62 20.874 11.62 Q 20.034 11.62 19.334 11.2 A 2.668 2.668 0 0 1 18.523 10.433 A 3.57 3.57 0 0 1 18.221 9.912 Q 17.808 9.044 17.808 7.77 Q 17.808 6.58 18.298 5.6 Q 18.788 4.62 19.705 4.053 A 3.767 3.767 0 0 1 21.157 3.536 A 4.898 4.898 0 0 1 21.868 3.486 A 5.744 5.744 0 0 1 22.611 3.532 A 4.507 4.507 0 0 1 23.17 3.64 Z M 31.192 6.762 L 31.192 6.37 A 5.037 5.037 0 0 0 31.178 5.986 Q 31.148 5.594 31.052 5.334 Q 30.912 4.956 30.569 4.781 Q 30.24 4.613 29.648 4.606 A 4.409 4.409 0 0 0 29.596 4.606 A 4.327 4.327 0 0 0 28.919 4.657 A 3.337 3.337 0 0 0 28.315 4.809 Q 27.748 5.012 27.188 5.306 L 26.838 4.578 Q 26.975 4.462 27.287 4.29 A 9.047 9.047 0 0 1 27.51 4.172 Q 28 3.92 28.644 3.724 Q 29.288 3.528 29.932 3.528 A 5.934 5.934 0 0 1 30.513 3.555 Q 30.81 3.584 31.059 3.646 A 2.424 2.424 0 0 1 31.507 3.801 Q 32.088 4.074 32.34 4.676 Q 32.592 5.278 32.592 6.286 L 32.592 10.78 L 33.418 10.78 L 33.418 11.396 Q 33.228 11.444 32.969 11.491 A 13.335 13.335 0 0 1 32.711 11.536 A 6.089 6.089 0 0 1 32.381 11.581 Q 32.217 11.599 32.072 11.604 A 3.212 3.212 0 0 1 31.962 11.606 Q 31.664 11.606 31.512 11.537 A 0.344 0.344 0 0 1 31.43 11.487 A 0.292 0.292 0 0 1 31.356 11.385 Q 31.29 11.241 31.29 10.962 L 31.29 10.5 A 4.382 4.382 0 0 1 30.758 10.95 A 5.657 5.657 0 0 1 30.261 11.27 Q 29.652 11.62 28.882 11.62 A 2.881 2.881 0 0 1 28.093 11.517 A 2.266 2.266 0 0 1 27.209 11.039 A 1.88 1.88 0 0 1 26.612 10.013 A 2.892 2.892 0 0 1 26.544 9.366 A 2.037 2.037 0 0 1 26.778 8.379 Q 27.099 7.787 27.86 7.427 A 6.22 6.22 0 0 1 29.144 6.993 Q 29.772 6.851 30.504 6.795 A 12.477 12.477 0 0 1 31.192 6.762 Z M 80.444 6.762 L 80.444 6.37 A 5.037 5.037 0 0 0 80.43 5.986 Q 80.4 5.594 80.304 5.334 Q 80.164 4.956 79.821 4.781 Q 79.492 4.613 78.9 4.606 A 4.409 4.409 0 0 0 78.848 4.606 A 4.327 4.327 0 0 0 78.171 4.657 A 3.337 3.337 0 0 0 77.567 4.809 Q 77 5.012 76.44 5.306 L 76.09 4.578 Q 76.227 4.462 76.539 4.29 A 9.047 9.047 0 0 1 76.762 4.172 Q 77.252 3.92 77.896 3.724 Q 78.54 3.528 79.184 3.528 A 5.934 5.934 0 0 1 79.765 3.555 Q 80.062 3.584 80.311 3.646 A 2.424 2.424 0 0 1 80.759 3.801 Q 81.34 4.074 81.592 4.676 Q 81.844 5.278 81.844 6.286 L 81.844 10.78 L 82.67 10.78 L 82.67 11.396 Q 82.48 11.444 82.221 11.491 A 13.335 13.335 0 0 1 81.963 11.536 A 6.089 6.089 0 0 1 81.633 11.581 Q 81.469 11.599 81.324 11.604 A 3.212 3.212 0 0 1 81.214 11.606 Q 80.916 11.606 80.764 11.537 A 0.344 0.344 0 0 1 80.682 11.487 A 0.292 0.292 0 0 1 80.608 11.385 Q 80.542 11.241 80.542 10.962 L 80.542 10.5 A 4.382 4.382 0 0 1 80.01 10.95 A 5.657 5.657 0 0 1 79.513 11.27 Q 78.904 11.62 78.134 11.62 A 2.881 2.881 0 0 1 77.345 11.517 A 2.266 2.266 0 0 1 76.461 11.039 A 1.88 1.88 0 0 1 75.864 10.013 A 2.892 2.892 0 0 1 75.796 9.366 A 2.037 2.037 0 0 1 76.03 8.379 Q 76.351 7.787 77.112 7.427 A 6.22 6.22 0 0 1 78.396 6.993 Q 79.024 6.851 79.756 6.795 A 12.477 12.477 0 0 1 80.444 6.762 Z M 89.376 11.466 L 89.376 10.78 L 90.426 10.696 L 90.426 4.774 L 89.418 4.522 L 89.418 3.766 L 91.35 3.514 L 91.378 3.514 L 91.686 3.766 L 91.686 4.018 L 91.644 5.11 L 91.686 5.11 Q 91.803 4.911 92.076 4.615 A 7.578 7.578 0 0 1 92.19 4.494 Q 92.531 4.14 93.057 3.841 A 5.368 5.368 0 0 1 93.128 3.801 Q 93.702 3.486 94.374 3.486 A 1.849 1.849 0 0 1 94.563 3.495 Q 94.656 3.505 94.735 3.524 A 0.867 0.867 0 0 1 94.836 3.556 L 94.836 5.124 Q 94.751 5.063 94.576 5.008 A 2.318 2.318 0 0 0 94.521 4.991 A 1.566 1.566 0 0 0 94.246 4.938 A 2.012 2.012 0 0 0 94.038 4.928 Q 92.876 4.928 91.882 5.642 L 91.882 10.682 L 93.66 10.794 L 93.66 11.466 L 89.376 11.466 Z M 16.548 7.574 L 11.732 7.574 Q 11.754 8.683 12.153 9.446 A 2.868 2.868 0 0 0 12.376 9.807 A 1.979 1.979 0 0 0 13.817 10.637 A 2.767 2.767 0 0 0 14.126 10.654 Q 14.686 10.654 15.295 10.451 A 4.268 4.268 0 0 0 15.681 10.302 Q 16.02 10.152 16.24 9.968 L 16.506 10.584 A 2.349 2.349 0 0 1 16.116 10.904 Q 15.779 11.128 15.302 11.312 Q 14.504 11.62 13.678 11.62 A 4.131 4.131 0 0 1 12.62 11.492 A 2.831 2.831 0 0 1 11.095 10.514 Q 10.282 9.502 10.212 7.869 A 7.301 7.301 0 0 1 10.206 7.56 A 5.448 5.448 0 0 1 10.314 6.449 A 4.213 4.213 0 0 1 10.668 5.418 A 3.514 3.514 0 0 1 11.467 4.356 A 3.32 3.32 0 0 1 11.963 3.99 A 3.505 3.505 0 0 1 13.533 3.498 A 4.278 4.278 0 0 1 13.86 3.486 Q 14.944 3.486 15.625 3.986 A 2.226 2.226 0 0 1 15.883 4.207 A 2.439 2.439 0 0 1 16.479 5.214 Q 16.597 5.588 16.633 6.038 A 4.881 4.881 0 0 1 16.646 6.272 A 12.085 12.085 0 0 1 16.638 6.72 Q 16.618 7.252 16.548 7.574 Z M 102.074 7.574 L 97.258 7.574 Q 97.28 8.683 97.679 9.446 A 2.868 2.868 0 0 0 97.902 9.807 A 1.979 1.979 0 0 0 99.343 10.637 A 2.767 2.767 0 0 0 99.652 10.654 Q 100.212 10.654 100.821 10.451 A 4.268 4.268 0 0 0 101.207 10.302 Q 101.546 10.152 101.766 9.968 L 102.032 10.584 A 2.349 2.349 0 0 1 101.642 10.904 Q 101.305 11.128 100.828 11.312 Q 100.03 11.62 99.204 11.62 A 4.131 4.131 0 0 1 98.146 11.492 A 2.831 2.831 0 0 1 96.621 10.514 Q 95.808 9.502 95.738 7.869 A 7.301 7.301 0 0 1 95.732 7.56 A 5.448 5.448 0 0 1 95.84 6.449 A 4.213 4.213 0 0 1 96.194 5.418 A 3.514 3.514 0 0 1 96.993 4.356 A 3.32 3.32 0 0 1 97.489 3.99 A 3.505 3.505 0 0 1 99.059 3.498 A 4.278 4.278 0 0 1 99.386 3.486 Q 100.47 3.486 101.151 3.986 A 2.226 2.226 0 0 1 101.409 4.207 A 2.439 2.439 0 0 1 102.005 5.214 Q 102.123 5.588 102.159 6.038 A 4.881 4.881 0 0 1 102.172 6.272 A 12.085 12.085 0 0 1 102.164 6.72 Q 102.144 7.252 102.074 7.574 Z M 44.506 9.996 L 44.506 4.62 L 43.498 4.62 L 43.498 3.99 Q 43.564 3.977 43.85 3.903 A 49.8 49.8 0 0 0 43.89 3.892 A 4.433 4.433 0 0 0 44.034 3.852 Q 44.232 3.793 44.318 3.742 A 0.37 0.37 0 0 0 44.324 3.738 A 0.583 0.583 0 0 0 44.496 3.587 Q 44.553 3.513 44.601 3.415 A 1.495 1.495 0 0 0 44.674 3.234 Q 44.759 3.032 44.868 2.644 A 14.797 14.797 0 0 0 44.94 2.38 A 452.165 452.165 0 0 0 44.993 2.176 Q 45.08 1.843 45.111 1.722 A 8.652 8.652 0 0 0 45.122 1.68 L 45.948 1.68 L 45.976 3.696 L 48.314 3.696 L 48.314 4.62 L 45.976 4.62 L 45.976 8.918 A 20.571 20.571 0 0 0 45.979 9.287 Q 45.988 9.785 46.023 10.027 A 1.825 1.825 0 0 0 46.025 10.038 Q 46.067 10.317 46.194 10.428 A 0.295 0.295 0 0 0 46.235 10.458 A 0.498 0.498 0 0 0 46.35 10.507 Q 46.471 10.544 46.655 10.553 A 2.666 2.666 0 0 0 46.788 10.556 Q 47.163 10.556 47.614 10.46 A 5.434 5.434 0 0 0 47.621 10.458 Q 48.043 10.367 48.29 10.264 A 1.713 1.713 0 0 0 48.328 10.248 L 48.538 10.878 Q 48.24 11.102 47.617 11.314 A 8.196 8.196 0 0 1 47.453 11.368 A 5.608 5.608 0 0 1 46.823 11.531 Q 46.435 11.606 46.088 11.606 A 2.787 2.787 0 0 1 45.65 11.574 Q 45.419 11.537 45.236 11.458 A 1.171 1.171 0 0 1 44.898 11.242 A 1.047 1.047 0 0 1 44.644 10.861 Q 44.506 10.52 44.506 9.996 Z M 84.462 9.996 L 84.462 4.62 L 83.454 4.62 L 83.454 3.99 Q 83.52 3.977 83.806 3.903 A 49.8 49.8 0 0 0 83.846 3.892 A 4.433 4.433 0 0 0 83.99 3.852 Q 84.188 3.793 84.274 3.742 A 0.37 0.37 0 0 0 84.28 3.738 A 0.583 0.583 0 0 0 84.452 3.587 Q 84.509 3.513 84.557 3.415 A 1.495 1.495 0 0 0 84.63 3.234 Q 84.715 3.032 84.824 2.644 A 14.797 14.797 0 0 0 84.896 2.38 A 452.165 452.165 0 0 0 84.949 2.176 Q 85.036 1.843 85.067 1.722 A 8.652 8.652 0 0 0 85.078 1.68 L 85.904 1.68 L 85.932 3.696 L 88.27 3.696 L 88.27 4.62 L 85.932 4.62 L 85.932 8.918 A 20.571 20.571 0 0 0 85.935 9.287 Q 85.944 9.785 85.979 10.027 A 1.825 1.825 0 0 0 85.981 10.038 Q 86.023 10.317 86.15 10.428 A 0.295 0.295 0 0 0 86.191 10.458 A 0.498 0.498 0 0 0 86.306 10.507 Q 86.427 10.544 86.611 10.553 A 2.666 2.666 0 0 0 86.744 10.556 Q 87.119 10.556 87.57 10.46 A 5.434 5.434 0 0 0 87.577 10.458 Q 87.999 10.367 88.246 10.264 A 1.713 1.713 0 0 0 88.284 10.248 L 88.494 10.878 Q 88.196 11.102 87.573 11.314 A 8.196 8.196 0 0 1 87.409 11.368 A 5.608 5.608 0 0 1 86.779 11.531 Q 86.391 11.606 86.044 11.606 A 2.787 2.787 0 0 1 85.606 11.574 Q 85.375 11.537 85.192 11.458 A 1.171 1.171 0 0 1 84.854 11.242 A 1.047 1.047 0 0 1 84.6 10.861 Q 84.462 10.52 84.462 9.996 Z M 23.17 9.814 L 23.17 4.69 A 0.425 0.425 0 0 0 23.077 4.593 Q 22.974 4.513 22.793 4.441 A 2.483 2.483 0 0 0 22.645 4.389 A 2.818 2.818 0 0 0 21.829 4.257 A 3.178 3.178 0 0 0 21.77 4.256 A 2.305 2.305 0 0 0 20.913 4.41 A 2.098 2.098 0 0 0 20.027 5.089 A 2.589 2.589 0 0 0 19.63 5.841 Q 19.392 6.527 19.377 7.524 A 8.981 8.981 0 0 0 19.376 7.658 A 6.376 6.376 0 0 0 19.421 8.446 Q 19.531 9.325 19.907 9.841 A 1.867 1.867 0 0 0 19.95 9.898 Q 20.523 10.624 21.43 10.626 A 2.359 2.359 0 0 0 21.434 10.626 Q 21.98 10.626 22.456 10.381 A 2.687 2.687 0 0 0 22.78 10.186 Q 22.946 10.069 23.068 9.937 A 1.44 1.44 0 0 0 23.17 9.814 Z M 31.192 9.912 L 31.192 7.504 A 8.033 8.033 0 0 0 30.393 7.541 Q 29.536 7.627 28.997 7.912 A 2.186 2.186 0 0 0 28.889 7.973 A 1.985 1.985 0 0 0 28.488 8.285 A 1.267 1.267 0 0 0 28.112 9.198 A 2.439 2.439 0 0 0 28.144 9.609 Q 28.221 10.059 28.483 10.311 A 1.242 1.242 0 0 0 29.09 10.628 A 1.826 1.826 0 0 0 29.484 10.668 Q 29.765 10.668 30.113 10.534 A 3.14 3.14 0 0 0 30.324 10.444 A 4.505 4.505 0 0 0 31.18 9.922 A 4.239 4.239 0 0 0 31.192 9.912 Z M 80.444 9.912 L 80.444 7.504 A 8.033 8.033 0 0 0 79.645 7.541 Q 78.788 7.627 78.249 7.912 A 2.186 2.186 0 0 0 78.141 7.973 A 1.985 1.985 0 0 0 77.74 8.285 A 1.267 1.267 0 0 0 77.364 9.198 A 2.439 2.439 0 0 0 77.396 9.609 Q 77.473 10.059 77.735 10.311 A 1.242 1.242 0 0 0 78.342 10.628 A 1.826 1.826 0 0 0 78.736 10.668 Q 79.017 10.668 79.365 10.534 A 3.14 3.14 0 0 0 79.576 10.444 A 4.505 4.505 0 0 0 80.432 9.922 A 4.239 4.239 0 0 0 80.444 9.912 Z M 11.746 6.832 L 15.106 6.832 Q 15.148 6.538 15.148 6.23 A 3.701 3.701 0 0 0 15.098 5.662 Q 15.047 5.362 14.943 5.119 A 1.761 1.761 0 0 0 14.763 4.795 A 1.193 1.193 0 0 0 14.03 4.316 A 1.928 1.928 0 0 0 13.594 4.27 Q 12.782 4.27 12.299 4.858 A 1.84 1.84 0 0 0 12.021 5.343 Q 11.827 5.827 11.764 6.565 A 7.821 7.821 0 0 0 11.746 6.832 Z M 97.272 6.832 L 100.632 6.832 Q 100.674 6.538 100.674 6.23 A 3.701 3.701 0 0 0 100.624 5.662 Q 100.573 5.362 100.469 5.119 A 1.761 1.761 0 0 0 100.289 4.795 A 1.193 1.193 0 0 0 99.556 4.316 A 1.928 1.928 0 0 0 99.12 4.27 Q 98.308 4.27 97.825 4.858 A 1.84 1.84 0 0 0 97.547 5.343 Q 97.353 5.827 97.29 6.565 A 7.821 7.821 0 0 0 97.272 6.832 Z" vector-effect="non-scaling-stroke"/></g></svg>