<svg width="107pt" height="13pt" fill="currentColor" viewBox="0 0 107 13" xmlns="http://www.w3.org/2000/svg"><g id="fontsvg1691787012880" stroke-linecap="round" fill-rule="evenodd" stroke-width="0mm"><path d="M 56.016 0.625 L 59.078 0.625 L 62 8.875 L 64.906 0.625 L 67.984 0.625 L 67.984 12 L 65.633 12 L 65.633 8.891 L 65.867 3.523 L 62.797 12 L 61.188 12 L 58.125 3.531 L 58.359 8.891 L 58.359 12 L 56.016 12 L 56.016 0.625 Z M 72.086 0 L 72.086 4.469 A 3.054 3.054 0 0 1 72.995 3.713 A 2.825 2.825 0 0 1 74.344 3.391 A 3.374 3.374 0 0 1 75.517 3.578 Q 76.999 4.126 77.122 6.275 A 6.895 6.895 0 0 1 77.133 6.586 L 77.133 12 L 74.875 12 L 74.875 6.648 A 2.688 2.688 0 0 0 74.849 6.26 Q 74.785 5.821 74.563 5.574 A 0.924 0.924 0 0 0 74.202 5.334 Q 73.926 5.227 73.523 5.227 A 2.011 2.011 0 0 0 72.944 5.305 A 1.446 1.446 0 0 0 72.086 5.992 L 72.086 12 L 69.828 12 L 69.828 0 L 72.086 0 Z M 2.602 0.625 L 5.164 9.18 L 7.742 0.625 L 10.352 0.625 L 6.391 12 L 3.945 12 L 0 0.625 L 2.602 0.625 Z M 37.469 3.547 L 39.594 3.547 L 39.664 4.523 A 2.903 2.903 0 0 1 41.768 3.404 A 3.842 3.842 0 0 1 42.094 3.391 A 3.623 3.623 0 0 1 42.866 3.468 Q 43.345 3.572 43.701 3.819 A 1.973 1.973 0 0 1 44.094 4.18 A 2.537 2.537 0 0 1 44.532 4.98 Q 44.658 5.345 44.716 5.792 A 6.295 6.295 0 0 1 44.766 6.539 L 44.766 12 L 42.508 12 L 42.508 6.594 Q 42.508 6.17 42.399 5.883 A 0.964 0.964 0 0 0 42.195 5.551 Q 41.886 5.229 41.169 5.227 A 3.22 3.22 0 0 0 41.156 5.227 Q 40.271 5.227 39.796 5.928 A 2.052 2.052 0 0 0 39.727 6.039 L 39.727 12 L 37.469 12 L 37.469 3.547 Z M 24.922 4.313 L 24.922 0 L 27.188 0 L 27.188 12 L 25.148 12 L 25.039 11.102 A 2.84 2.84 0 0 1 24.158 11.85 A 2.702 2.702 0 0 1 22.867 12.156 A 3.055 3.055 0 0 1 21.636 11.915 Q 20.966 11.623 20.473 10.98 A 3.993 3.993 0 0 1 19.826 9.68 Q 19.57 8.825 19.57 7.711 A 7.167 7.167 0 0 1 19.675 6.447 Q 19.803 5.732 20.088 5.16 A 3.773 3.773 0 0 1 20.457 4.562 A 2.825 2.825 0 0 1 22.508 3.409 A 3.745 3.745 0 0 1 22.883 3.391 A 2.694 2.694 0 0 1 24.042 3.636 A 2.675 2.675 0 0 1 24.922 4.312 Z M 36.117 12 L 33.836 12 Q 33.703 11.741 33.632 11.374 A 3.658 3.658 0 0 1 33.609 11.242 A 2.701 2.701 0 0 1 31.639 12.153 A 3.641 3.641 0 0 1 31.477 12.156 A 3.531 3.531 0 0 1 30.504 12.028 A 2.775 2.775 0 0 1 29.418 11.438 A 2.299 2.299 0 0 1 28.605 9.769 A 2.835 2.835 0 0 1 28.602 9.625 Q 28.602 8.281 29.598 7.563 A 3.35 3.35 0 0 1 30.553 7.096 Q 31.359 6.841 32.477 6.836 L 33.516 6.836 L 33.516 6.352 A 1.855 1.855 0 0 0 33.477 5.961 Q 33.421 5.7 33.283 5.502 A 1.121 1.121 0 0 0 33.215 5.414 A 0.929 0.929 0 0 0 32.797 5.14 Q 32.57 5.063 32.266 5.063 A 1.922 1.922 0 0 0 31.91 5.093 Q 31.586 5.154 31.371 5.336 A 0.894 0.894 0 0 0 31.055 5.942 A 1.272 1.272 0 0 0 31.047 6.086 L 28.789 6.086 A 2.267 2.267 0 0 1 29.239 4.731 A 2.818 2.818 0 0 1 29.242 4.727 A 2.774 2.774 0 0 1 30.031 4.001 A 3.639 3.639 0 0 1 30.523 3.746 A 4.378 4.378 0 0 1 31.758 3.425 A 5.476 5.476 0 0 1 32.383 3.391 A 5.037 5.037 0 0 1 33.402 3.488 Q 34.268 3.667 34.863 4.176 A 2.561 2.561 0 0 1 35.729 5.741 A 3.778 3.778 0 0 1 35.781 6.383 L 35.781 10.047 Q 35.789 11.25 36.117 11.867 L 36.117 12 Z M 86.016 12 L 83.734 12 Q 83.601 11.741 83.531 11.374 A 3.658 3.658 0 0 1 83.508 11.242 A 2.701 2.701 0 0 1 81.537 12.153 A 3.641 3.641 0 0 1 81.375 12.156 A 3.531 3.531 0 0 1 80.403 12.028 A 2.775 2.775 0 0 1 79.316 11.438 A 2.299 2.299 0 0 1 78.504 9.769 A 2.835 2.835 0 0 1 78.5 9.625 Q 78.5 8.281 79.496 7.563 A 3.35 3.35 0 0 1 80.452 7.096 Q 81.257 6.841 82.375 6.836 L 83.414 6.836 L 83.414 6.352 A 1.855 1.855 0 0 0 83.375 5.961 Q 83.319 5.7 83.181 5.502 A 1.121 1.121 0 0 0 83.113 5.414 A 0.929 0.929 0 0 0 82.696 5.14 Q 82.468 5.063 82.164 5.063 A 1.922 1.922 0 0 0 81.809 5.093 Q 81.485 5.154 81.27 5.336 A 0.894 0.894 0 0 0 80.953 5.942 A 1.272 1.272 0 0 0 80.945 6.086 L 78.688 6.086 A 2.267 2.267 0 0 1 79.137 4.731 A 2.818 2.818 0 0 1 79.141 4.727 A 2.774 2.774 0 0 1 79.93 4.001 A 3.639 3.639 0 0 1 80.422 3.746 A 4.378 4.378 0 0 1 81.657 3.425 A 5.476 5.476 0 0 1 82.281 3.391 A 5.037 5.037 0 0 1 83.3 3.488 Q 84.166 3.667 84.762 4.176 A 2.561 2.561 0 0 1 85.628 5.741 A 3.778 3.778 0 0 1 85.68 6.383 L 85.68 10.047 Q 85.688 11.25 86.016 11.867 L 86.016 12 Z M 10.969 7.977 L 10.969 7.758 A 5.653 5.653 0 0 1 11.108 6.481 A 4.639 4.639 0 0 1 11.461 5.48 A 3.738 3.738 0 0 1 12.295 4.35 A 3.521 3.521 0 0 1 12.855 3.934 A 3.814 3.814 0 0 1 14.555 3.404 A 4.684 4.684 0 0 1 14.914 3.391 A 4.426 4.426 0 0 1 16.088 3.538 A 3.208 3.208 0 0 1 17.645 4.484 Q 18.507 5.432 18.623 7.064 A 7.389 7.389 0 0 1 18.641 7.586 L 18.641 8.508 L 13.258 8.508 Q 13.367 9.336 13.918 9.836 A 1.906 1.906 0 0 0 14.982 10.315 A 2.574 2.574 0 0 0 15.312 10.336 A 2.882 2.882 0 0 0 16.228 10.197 A 2.335 2.335 0 0 0 17.352 9.391 L 18.461 10.633 A 3.327 3.327 0 0 1 17.299 11.648 A 4.019 4.019 0 0 1 17.086 11.754 A 4.368 4.368 0 0 1 15.585 12.14 A 5.249 5.249 0 0 1 15.164 12.156 A 4.941 4.941 0 0 1 13.767 11.968 A 3.851 3.851 0 0 1 12.137 11.016 A 3.809 3.809 0 0 1 11.033 8.825 A 5.397 5.397 0 0 1 10.969 7.977 Z M 98.352 7.977 L 98.352 7.758 A 5.653 5.653 0 0 1 98.49 6.481 A 4.639 4.639 0 0 1 98.844 5.48 A 3.738 3.738 0 0 1 99.678 4.35 A 3.521 3.521 0 0 1 100.238 3.934 A 3.814 3.814 0 0 1 101.937 3.404 A 4.684 4.684 0 0 1 102.297 3.391 A 4.426 4.426 0 0 1 103.471 3.538 A 3.208 3.208 0 0 1 105.027 4.484 Q 105.89 5.432 106.006 7.064 A 7.389 7.389 0 0 1 106.023 7.586 L 106.023 8.508 L 100.641 8.508 Q 100.75 9.336 101.301 9.836 A 1.906 1.906 0 0 0 102.365 10.315 A 2.574 2.574 0 0 0 102.695 10.336 A 2.882 2.882 0 0 0 103.611 10.197 A 2.335 2.335 0 0 0 104.734 9.391 L 105.844 10.633 A 3.327 3.327 0 0 1 104.682 11.648 A 4.019 4.019 0 0 1 104.469 11.754 A 4.368 4.368 0 0 1 102.968 12.14 A 5.249 5.249 0 0 1 102.547 12.156 A 4.941 4.941 0 0 1 101.15 11.968 A 3.851 3.851 0 0 1 99.52 11.016 A 3.809 3.809 0 0 1 98.416 8.825 A 5.397 5.397 0 0 1 98.352 7.977 Z M 46.922 1.469 L 49.18 1.469 L 49.18 3.547 L 50.625 3.547 L 50.625 5.203 L 49.18 5.203 L 49.18 9.422 Q 49.18 9.838 49.321 10.045 A 0.501 0.501 0 0 0 49.359 10.094 A 0.482 0.482 0 0 0 49.53 10.213 Q 49.721 10.297 50.047 10.297 A 4.413 4.413 0 0 0 50.359 10.286 Q 50.513 10.275 50.649 10.253 A 2.584 2.584 0 0 0 50.711 10.242 L 50.711 11.953 Q 50.047 12.156 49.344 12.156 A 3.394 3.394 0 0 1 48.387 12.033 Q 46.958 11.613 46.922 9.758 L 46.922 5.203 L 45.688 5.203 L 45.688 3.547 L 46.922 3.547 L 46.922 1.469 Z M 87.859 1.469 L 90.117 1.469 L 90.117 3.547 L 91.563 3.547 L 91.563 5.203 L 90.117 5.203 L 90.117 9.422 Q 90.117 9.838 90.259 10.045 A 0.501 0.501 0 0 0 90.297 10.094 A 0.482 0.482 0 0 0 90.468 10.213 Q 90.659 10.297 90.984 10.297 A 4.413 4.413 0 0 0 91.296 10.286 Q 91.45 10.275 91.587 10.253 A 2.584 2.584 0 0 0 91.648 10.242 L 91.648 11.953 Q 90.984 12.156 90.281 12.156 A 3.394 3.394 0 0 1 89.325 12.033 Q 87.896 11.613 87.859 9.758 L 87.859 5.203 L 86.625 5.203 L 86.625 3.547 L 87.859 3.547 L 87.859 1.469 Z M 97.602 3.492 L 97.57 5.664 A 7.928 7.928 0 0 0 97.24 5.626 Q 96.978 5.602 96.758 5.602 A 2.906 2.906 0 0 0 96.156 5.659 Q 95.374 5.825 95.078 6.469 L 95.078 12 L 92.82 12 L 92.82 3.547 L 94.953 3.547 L 95.016 4.555 A 2.736 2.736 0 0 1 95.505 3.928 A 1.969 1.969 0 0 1 96.898 3.391 A 2.456 2.456 0 0 1 97.413 3.443 A 2.175 2.175 0 0 1 97.602 3.492 Z M 24.922 9.445 L 24.922 6.109 A 1.582 1.582 0 0 0 24.511 5.565 Q 24.206 5.311 23.768 5.248 A 2.141 2.141 0 0 0 23.461 5.227 Q 21.903 5.227 21.832 7.637 A 8.013 8.013 0 0 0 21.828 7.875 Q 21.828 8.626 21.994 9.156 A 2.159 2.159 0 0 0 22.242 9.695 A 1.375 1.375 0 0 0 22.722 10.155 Q 22.984 10.301 23.319 10.324 A 1.859 1.859 0 0 0 23.445 10.328 A 1.92 1.92 0 0 0 24.046 10.24 Q 24.628 10.049 24.922 9.445 Z M 13.281 6.969 L 16.422 6.969 L 16.422 6.789 A 2.37 2.37 0 0 0 16.369 6.324 Q 16.308 6.047 16.175 5.835 A 1.282 1.282 0 0 0 16.016 5.629 Q 15.625 5.219 14.906 5.219 A 1.618 1.618 0 0 0 14.385 5.299 A 1.354 1.354 0 0 0 13.816 5.672 A 1.812 1.812 0 0 0 13.491 6.183 Q 13.344 6.521 13.281 6.969 Z M 100.664 6.969 L 103.805 6.969 L 103.805 6.789 A 2.37 2.37 0 0 0 103.752 6.324 Q 103.69 6.047 103.558 5.835 A 1.282 1.282 0 0 0 103.398 5.629 Q 103.008 5.219 102.289 5.219 A 1.618 1.618 0 0 0 101.767 5.299 A 1.354 1.354 0 0 0 101.199 5.672 A 1.812 1.812 0 0 0 100.873 6.183 Q 100.726 6.521 100.664 6.969 Z M 33.516 9.609 L 33.516 8.156 L 32.672 8.156 A 3.666 3.666 0 0 0 32.049 8.205 Q 31.726 8.261 31.491 8.381 A 1.112 1.112 0 0 0 30.867 9.328 L 30.859 9.461 A 0.979 0.979 0 0 0 30.925 9.824 A 0.897 0.897 0 0 0 31.156 10.156 A 0.99 0.99 0 0 0 31.586 10.385 Q 31.738 10.424 31.917 10.429 A 1.883 1.883 0 0 0 31.969 10.43 A 1.945 1.945 0 0 0 32.891 10.207 Q 33.313 9.984 33.516 9.609 Z M 83.414 9.609 L 83.414 8.156 L 82.57 8.156 A 3.666 3.666 0 0 0 81.947 8.205 Q 81.624 8.261 81.389 8.381 A 1.112 1.112 0 0 0 80.766 9.328 L 80.758 9.461 A 0.979 0.979 0 0 0 80.823 9.824 A 0.897 0.897 0 0 0 81.055 10.156 A 0.99 0.99 0 0 0 81.484 10.385 Q 81.636 10.424 81.815 10.429 A 1.883 1.883 0 0 0 81.867 10.43 A 1.945 1.945 0 0 0 82.789 10.207 Q 83.211 9.984 83.414 9.609 Z" vector-effect="non-scaling-stroke"/></g></svg>